<?xml version="1.0" encoding="iso-8859-1"?>
<!-- Generator: Adobe Illustrator 16.0.0, SVG Export Plug-In . SVG Version: 6.00 Build 0)  -->
<!DOCTYPE svg PUBLIC "-//W3C//DTD SVG 1.1//EN" "http://www.w3.org/Graphics/SVG/1.1/DTD/svg11.dtd">
<svg version="1.1" id="Capa_1" xmlns="http://www.w3.org/2000/svg" xmlns:xlink="http://www.w3.org/1999/xlink" x="0px" y="0px"
	 width="64px" height="64px" viewBox="0 0 616.121 616.121" style="enable-background:new 0 0 616.121 616.121;"
	 xml:space="preserve">
<g>
	<g>
		<path d="M132.974,113.521c-14.189,0-25.175,11.445-25.175,25.634s10.986,25.175,25.175,25.175h349.714
			c14.188,0,25.175-10.986,25.175-25.175s-10.986-25.634-25.175-25.634H132.974L132.974,113.521z"/>
		<path d="M482.688,389.996c14.188,0,25.175-10.986,25.175-25.175s-10.986-25.175-25.175-25.175H132.974
			c-14.189,0-25.175,10.986-25.175,25.175s10.986,25.175,25.175,25.175H482.688z"/>
		<path d="M482.688,565.312H132.974c-14.189,0-25.175,11.444-25.175,25.634c0,14.188,10.986,25.175,25.175,25.175h349.714
			c14.188,0,25.175-10.986,25.175-25.175C507.863,576.757,496.877,565.312,482.688,565.312z"/>
		<path d="M27.235,50.809h561.65c14.188,0,25.175-10.986,25.175-25.175C614.061,12.363,603.074,0,588.886,0H27.235
			C13.046,0,2.061,12.363,2.061,25.634C2.061,39.823,13.046,50.809,27.235,50.809z"/>
		<path d="M588.886,226.125H27.235c-14.189,0-25.175,10.986-25.175,25.175s10.986,25.634,25.175,25.634h561.65
			c14.188,0,25.175-11.445,25.175-25.634S603.074,226.125,588.886,226.125z"/>
		<path d="M588.886,452.25H27.235c-14.189,0-25.175,10.985-25.175,25.175c0,14.188,10.986,25.175,25.175,25.175h561.65
			c14.188,0,25.175-10.986,25.175-25.175C614.061,463.235,603.074,452.25,588.886,452.25z"/>
	</g>
</g>
<g>
</g>
<g>
</g>
<g>
</g>
<g>
</g>
<g>
</g>
<g>
</g>
<g>
</g>
<g>
</g>
<g>
</g>
<g>
</g>
<g>
</g>
<g>
</g>
<g>
</g>
<g>
</g>
<g>
</g>
</svg>
